<svg width="251" height="87" viewBox="0 0 251 87" fill="none" xmlns="http://www.w3.org/2000/svg">
<path d="M13.8462 63.6995C9.96036 63.6995 6.9294 62.6697 4.75333 60.6102C2.61611 58.5507 1.54751 55.6363 1.54751 51.8671C1.54751 49.5355 2.13038 47.1458 3.29614 44.6977C4.46189 42.2496 6.22995 39.8987 8.60031 37.6449L9.76607 36.5374H18.2761L19.5001 37.5866C21.8316 39.5684 23.522 41.589 24.5711 43.6485C25.6203 45.708 26.1449 48.0201 26.1449 50.5847C26.1449 54.7037 25.0569 57.929 22.8808 60.2605C20.7436 62.5531 17.732 63.6995 13.8462 63.6995ZM14.4291 54.9563C16.2943 54.9563 17.732 54.626 18.7424 53.9654C19.7915 53.3048 20.3161 52.4111 20.3161 51.2842C20.3161 50.9345 20.2384 50.5653 20.083 50.1767C19.9664 49.7881 19.7138 49.3607 19.3252 48.8944C18.9367 48.4281 18.4121 47.8841 17.7515 47.2623C17.0909 46.6406 16.236 45.9217 15.1868 45.1057L13.1468 43.5319H12.6804L10.9901 45.164C10.3295 45.8246 9.76607 46.4074 9.29977 46.9126C8.83346 47.4178 8.44488 47.9035 8.13401 48.3698C7.862 48.7972 7.66771 49.2247 7.55113 49.6521C7.43456 50.0796 7.37627 50.5264 7.37627 50.9927C7.37627 52.1585 7.88143 53.1105 8.89175 53.8488C9.94093 54.5871 11.3981 54.9563 13.2633 54.9563H14.4291ZM18.0429 31.8744C17.0326 31.8744 16.1971 31.5635 15.5365 30.9418C14.9148 30.32 14.6039 29.3292 14.6039 27.9691C14.6039 26.6091 14.9148 25.6182 15.5365 24.9964C16.1971 24.3747 17.0326 24.0638 18.0429 24.0638H19.2087C20.219 24.0638 21.035 24.3747 21.6567 24.9964C22.3173 25.6182 22.6476 26.6091 22.6476 27.9691C22.6476 29.3292 22.3173 30.32 21.6567 30.9418C21.035 31.5635 20.219 31.8744 19.2087 31.8744H18.0429ZM8.83346 31.8744C7.82314 31.8744 6.98769 31.5635 6.32709 30.9418C5.70536 30.32 5.39449 29.3292 5.39449 27.9691C5.39449 26.6091 5.70536 25.6182 6.32709 24.9964C6.98769 24.3747 7.82314 24.0638 8.83346 24.0638H9.99922C11.0095 24.0638 11.8256 24.3747 12.4473 24.9964C13.1079 25.6182 13.4382 26.6091 13.4382 27.9691C13.4382 29.3292 13.1079 30.32 12.4473 30.9418C11.8256 31.5635 11.0095 31.8744 9.99922 31.8744H8.83346ZM23.8084 68.2459H26.1399C29.676 68.2459 32.2601 67.527 33.8921 66.0892C35.5631 64.6515 36.3791 62.2617 36.3402 58.9199C36.3402 58.0261 36.2819 57.0935 36.1654 56.1221C36.0488 55.1117 35.8934 54.0431 35.6991 52.9162L34.475 45.164L40.8284 44.1731L41.7027 49.5938C41.8581 50.4487 41.9747 51.2648 42.0524 52.0419C42.169 52.8191 42.2661 53.5574 42.3439 54.2569H47.7063V61.2514L45.9577 63H42.3439C41.6833 67.3133 39.9735 70.7134 37.2145 73.2003C34.4945 75.7261 30.8223 76.989 26.1982 76.989H23.8084V68.2459ZM45.9349 56.0055L47.6836 54.2569H51.7054C53.8815 54.2569 55.8244 54.2374 57.5342 54.1986C59.2828 54.1208 60.9343 53.9654 62.4886 53.7323C64.043 53.4991 65.5584 53.1494 67.0351 52.6831C68.5117 52.2168 70.0854 51.5756 71.7564 50.7596L73.913 49.7104V49.419L64.587 47.4372L55.7855 45.2805V49.6521H49.0825V45.164C49.0825 42.405 49.6653 40.3844 50.8311 39.1021C52.0357 37.8197 53.862 37.1786 56.3101 37.1786C56.621 37.1786 56.9319 37.198 57.2427 37.2369C57.5925 37.2757 57.981 37.334 58.4085 37.4117C58.8748 37.4894 59.4188 37.606 60.0405 37.7614C60.6623 37.9169 61.4394 38.1112 62.372 38.3443L73.6216 41.2587C75.1759 41.6861 76.8468 42.0164 78.6343 42.2496C80.4218 42.4827 82.1899 42.5993 83.9385 42.5993H85.1042V51.3425H81.0241C81.063 52.4305 81.3738 53.1882 81.9567 53.6157C82.5784 54.0431 83.6276 54.2569 85.1042 54.2569H86.8529V61.2514L85.1042 63C82.1899 62.9611 79.9166 62.3005 78.2846 61.0182C76.6914 59.697 75.7005 57.657 75.3119 54.898L75.0788 55.0729C72.5141 56.8215 70.202 58.2204 68.1425 59.2696C66.1219 60.2799 64.1984 61.0765 62.372 61.6594C60.5457 62.2034 58.7776 62.5726 57.0679 62.7668C55.3581 62.9223 53.5706 63 51.7054 63H45.9349V56.0055ZM66.0442 75.5318C65.0339 75.5318 64.1984 75.221 63.5378 74.5992C62.9161 73.9775 62.6052 72.9866 62.6052 71.6266C62.6052 70.2665 62.9161 69.2756 63.5378 68.6539C64.1984 68.0322 65.0339 67.7213 66.0442 67.7213H67.2099C68.2202 67.7213 69.0363 68.0322 69.658 68.6539C70.3186 69.2756 70.6489 70.2665 70.6489 71.6266C70.6489 72.9866 70.3186 73.9775 69.658 74.5992C69.0363 75.221 68.2202 75.5318 67.2099 75.5318H66.0442ZM85.0969 56.0055L86.8456 54.2569H86.9039C88.7691 54.2569 90.1485 54.0431 91.0423 53.6157C91.9749 53.1494 92.7132 52.3528 93.2572 51.2259L95.5304 46.5046L101.301 49.3024L99.2608 53.5574C100.193 53.9848 101.145 54.354 102.117 54.6649C103.088 54.9369 104.079 55.0729 105.09 55.0729C106.761 55.0729 107.965 54.7232 108.703 54.0237C109.442 53.2854 109.811 52.0031 109.811 50.1767V46.5046H116.223V50.1767C116.223 51.8088 116.495 52.994 117.039 53.7323C117.621 54.4706 118.399 54.8397 119.37 54.8397H119.953C120.769 54.8397 121.43 54.5483 121.935 53.9654C122.44 53.3437 122.692 52.3722 122.692 51.051C122.692 50.507 122.634 49.827 122.518 49.011C122.401 48.1561 122.246 47.1263 122.051 45.9217L121.527 42.949L127.88 41.8999L128.346 44.8725C128.541 45.9994 128.677 47.068 128.754 48.0784C128.832 49.0498 128.871 50.0407 128.871 51.051C128.871 55.4032 128.113 58.609 126.598 60.6685C125.121 62.6891 122.809 63.6995 119.662 63.6995C116.903 63.6995 114.824 63.0389 113.425 61.7177C112.026 60.3965 111.074 58.3564 110.569 55.5975H110.219C109.908 58.3953 109.209 60.4548 108.121 61.776C107.071 63.0583 105.672 63.6995 103.924 63.6995C102.797 63.6995 101.67 63.4857 100.543 63.0583C99.4551 62.6697 98.0174 61.9508 96.2299 60.9016L95.0058 60.2022C93.8012 61.3679 92.4218 62.1257 90.8674 62.4754C89.3519 62.8251 87.4285 63 85.0969 63V56.0055ZM117.039 41.8416C116.028 41.8416 115.193 41.5307 114.532 40.909C113.91 40.2872 113.6 39.2964 113.6 37.9363C113.6 36.5763 113.91 35.5854 114.532 34.9636C115.193 34.3419 116.028 34.031 117.039 34.031H118.204C119.215 34.031 120.031 34.3419 120.652 34.9636C121.313 35.5854 121.643 36.5763 121.643 37.9363C121.643 39.2964 121.313 40.2872 120.652 40.909C120.031 41.5307 119.215 41.8416 118.204 41.8416H117.039ZM107.829 41.8416C106.819 41.8416 105.983 41.5307 105.323 40.909C104.701 40.2872 104.39 39.2964 104.39 37.9363C104.39 36.5763 104.701 35.5854 105.323 34.9636C105.983 34.3419 106.819 34.031 107.829 34.031H108.995C110.005 34.031 110.821 34.3419 111.443 34.9636C112.104 35.5854 112.434 36.5763 112.434 37.9363C112.434 39.2964 112.104 40.2872 111.443 40.909C110.821 41.5307 110.005 41.8416 108.995 41.8416H107.829ZM112.434 33.3316C111.424 33.3316 110.588 33.0207 109.927 32.399C109.306 31.7772 108.995 30.7864 108.995 29.4263C108.995 28.0663 109.306 27.0754 109.927 26.4536C110.588 25.8319 111.424 25.521 112.434 25.521H113.6C114.61 25.521 115.426 25.8319 116.048 26.4536C116.708 27.0754 117.039 28.0663 117.039 29.4263C117.039 30.7864 116.708 31.7772 116.048 32.399C115.426 33.0207 114.61 33.3316 113.6 33.3316H112.434Z" fill="#C6FFC1"/>
<path fill-rule="evenodd" clip-rule="evenodd" d="M202.464 40.1327C197.465 40.1327 193.412 44.1855 193.412 49.1848C193.412 54.1841 197.465 58.2369 202.464 58.2369C207.464 58.2369 211.516 54.1841 211.516 49.1848C211.516 44.1855 207.464 40.1327 202.464 40.1327ZM181.343 68.7976C181.343 63.7983 185.396 59.7455 190.395 59.7455C195.394 59.7455 199.447 63.7983 199.447 68.7976C199.447 73.7969 195.394 77.8497 190.395 77.8497C185.396 77.8497 181.343 73.7969 181.343 68.7976ZM206.991 68.7976C206.991 63.7983 211.044 59.7455 216.043 59.7455C221.042 59.7455 225.095 63.7983 225.095 68.7976C225.095 73.7969 221.042 77.8497 216.043 77.8497C211.044 77.8497 206.991 73.7969 206.991 68.7976Z" fill="#C6FFC1"/>
<path d="M224.061 8.592C215.755 8.592 209.17 11.1596 204.306 16.2949C199.517 21.5144 197.122 28.5017 197.122 37.2569H211.153C211.153 32.6267 212.313 29.0068 214.632 26.3971C216.952 23.7873 220.095 22.4825 224.061 22.4825C228.027 22.4825 231.17 23.7452 233.49 26.2708C235.809 28.8805 236.969 32.5005 236.969 37.1306H251C251 28.2912 248.568 21.3039 243.704 16.1686C238.915 11.1175 232.367 8.592 224.061 8.592Z" fill="#C6FFC1"/>
<path d="M181.594 8.71532C173.288 8.71532 166.703 11.283 161.839 16.4182C157.05 21.6377 154.655 28.625 154.655 37.3802H168.686C168.686 32.7501 169.846 29.1301 172.166 26.5204C174.485 23.9107 177.628 22.6058 181.594 22.6058C185.56 22.6058 188.703 23.8686 191.023 26.3941C193.343 29.0038 194.502 32.6238 194.502 37.2539H208.533C208.533 28.4145 206.101 21.4272 201.237 16.2919C196.448 11.2409 189.9 8.71532 181.594 8.71532Z" fill="#C6FFC1"/>
</svg>
