<svg width="395" height="137" viewBox="0 0 395 137" fill="none" xmlns="http://www.w3.org/2000/svg">
<path d="M21.2943 100.1C15.1853 100.1 10.4203 98.4807 6.9993 95.243C3.63936 92.0052 1.95938 87.4235 1.95938 81.4977C1.95938 77.8323 2.87573 74.0753 4.70843 70.2267C6.54113 66.378 9.32072 62.6821 13.0472 59.1388L14.8799 57.3978H28.2586L30.1829 59.0472C33.8483 62.1628 36.5057 65.3395 38.1552 68.5772C39.8046 71.815 40.6293 75.4498 40.6293 79.4818C40.6293 85.9573 38.9188 91.0278 35.4977 94.6932C32.1378 98.2975 27.4033 100.1 21.2943 100.1ZM22.2107 86.3544C25.143 86.3544 27.4033 85.8351 28.9917 84.7966C30.6411 83.7581 31.4658 82.353 31.4658 80.5814C31.4658 80.0316 31.3436 79.4512 31.0993 78.8403C30.916 78.2294 30.5189 77.5574 29.908 76.8244C29.2971 76.0913 28.4724 75.236 27.4339 74.2586C26.3953 73.2812 25.0514 72.151 23.4019 70.8681L20.1947 68.394H19.4616L16.8042 70.9597C15.7657 71.9983 14.8799 72.9146 14.1468 73.7088C13.4137 74.5029 12.8028 75.2666 12.3141 75.9997C11.8865 76.6716 11.581 77.3436 11.3978 78.0156C11.2145 78.6876 11.1229 79.3901 11.1229 80.1232C11.1229 81.9559 11.917 83.4526 13.5054 84.6133C15.1548 85.774 17.4457 86.3544 20.378 86.3544H22.2107ZM27.892 50.067C26.3037 50.067 24.9903 49.5783 23.9517 48.6008C22.9743 47.6234 22.4856 46.0656 22.4856 43.9275C22.4856 41.7893 22.9743 40.2315 23.9517 39.2541C24.9903 38.2766 26.3037 37.7879 27.892 37.7879H29.7247C31.3131 37.7879 32.596 38.2766 33.5734 39.2541C34.6119 40.2315 35.1312 41.7893 35.1312 43.9275C35.1312 46.0656 34.6119 47.6234 33.5734 48.6008C32.596 49.5783 31.3131 50.067 29.7247 50.067H27.892ZM13.4137 50.067C11.8254 50.067 10.512 49.5783 9.47344 48.6008C8.496 47.6234 8.00728 46.0656 8.00728 43.9275C8.00728 41.7893 8.496 40.2315 9.47344 39.2541C10.512 38.2766 11.8254 37.7879 13.4137 37.7879H15.2464C16.8348 37.7879 18.1177 38.2766 19.0951 39.2541C20.1336 40.2315 20.6529 41.7893 20.6529 43.9275C20.6529 46.0656 20.1336 47.6234 19.0951 48.6008C18.1177 49.5783 16.8348 50.067 15.2464 50.067H13.4137ZM36.956 107.247H40.6214C46.1806 107.247 50.2431 106.117 52.8089 103.857C55.4357 101.596 56.7186 97.8393 56.6575 92.5856C56.6575 91.1805 56.5659 89.7143 56.3826 88.1871C56.1993 86.5987 55.955 84.9188 55.6495 83.1472L53.7252 70.9597L63.7134 69.4019L65.0879 77.924C65.3323 79.268 65.5156 80.5508 65.6377 81.7726C65.821 82.9944 65.9737 84.1552 66.0959 85.2548H74.5263V96.251L71.7773 99H66.0959C65.0574 105.781 62.3694 111.126 58.032 115.036C53.7557 119.007 47.9827 120.992 40.7131 120.992H36.956V107.247ZM71.7415 88.0038L74.4905 85.2548H80.8133C84.2344 85.2548 87.2889 85.2242 89.9768 85.1631C92.7259 85.041 95.3222 84.7966 97.7658 84.4301C100.209 84.0635 102.592 83.5137 104.913 82.7806C107.235 82.0476 109.709 81.0396 112.336 79.7567L115.726 78.1073V77.6491L101.065 74.5335L87.2278 71.143V78.0156H76.6898V70.9597C76.6898 66.6224 77.6061 63.4457 79.4388 61.4297C81.3326 59.4137 84.2038 58.4058 88.0525 58.4058C88.5412 58.4058 89.0299 58.4363 89.5186 58.4974C90.0684 58.5585 90.6793 58.6501 91.3513 58.7723C92.0844 58.8945 92.9397 59.0777 93.9171 59.3221C94.8945 59.5665 96.1163 59.8719 97.5825 60.2385L115.268 64.8202C117.712 65.4922 120.338 66.0115 123.149 66.378C125.959 66.7445 128.738 66.9278 131.487 66.9278H133.32V80.673H126.906C126.967 82.3835 127.455 83.5748 128.372 84.2468C129.349 84.9188 130.999 85.2548 133.32 85.2548H136.069V96.251L133.32 99C128.738 98.9389 125.165 97.9004 122.599 95.8844C120.094 93.8074 118.536 90.6001 117.925 86.2628L117.559 86.5377C113.527 89.2867 109.892 91.4859 106.654 93.1354C103.478 94.7237 100.454 95.976 97.5825 96.8924C94.7113 97.7477 91.9317 98.328 89.2437 98.6335C86.5558 98.8778 83.7456 99 80.8133 99H71.7415V88.0038ZM103.355 118.701C101.767 118.701 100.454 118.213 99.4152 117.235C98.4378 116.258 97.949 114.7 97.949 112.562C97.949 110.424 98.4378 108.866 99.4152 107.889C100.454 106.911 101.767 106.422 103.355 106.422H105.188C106.777 106.422 108.059 106.911 109.037 107.889C110.075 108.866 110.595 110.424 110.595 112.562C110.595 114.7 110.075 116.258 109.037 117.235C108.059 118.213 106.777 118.701 105.188 118.701H103.355ZM133.309 88.0038L136.058 85.2548H136.149C139.082 85.2548 141.25 84.9188 142.655 84.2468C144.122 83.5137 145.282 82.2614 146.138 80.4898L149.711 73.0673L158.783 77.4658L155.576 84.1552C157.042 84.8271 158.539 85.4075 160.066 85.8962C161.593 86.3238 163.151 86.5377 164.739 86.5377C167.366 86.5377 169.26 85.9879 170.421 84.8882C171.581 83.7275 172.162 81.7116 172.162 78.8403V73.0673H182.242V78.8403C182.242 81.4061 182.669 83.2694 183.525 84.4301C184.441 85.5908 185.663 86.1711 187.19 86.1711H188.106C189.389 86.1711 190.428 85.7129 191.222 84.7966C192.016 83.8192 192.413 82.2919 192.413 80.2149C192.413 79.3596 192.321 78.2905 192.138 77.0076C191.955 75.6637 191.711 74.0448 191.405 72.151L190.58 67.4776L200.569 65.8282L201.302 70.5016C201.607 72.2732 201.821 73.9531 201.943 75.5415C202.065 77.0687 202.126 78.6265 202.126 80.2149C202.126 87.0569 200.935 92.0968 198.553 95.3346C196.231 98.5113 192.596 100.1 187.648 100.1C183.311 100.1 180.042 99.0611 177.843 96.984C175.644 94.907 174.147 91.6998 173.353 87.3624H172.803C172.315 91.7608 171.215 94.9986 169.504 97.0757C167.855 99.0916 165.656 100.1 162.907 100.1C161.135 100.1 159.363 99.7636 157.592 99.0916C155.881 98.4807 153.621 97.3506 150.811 95.7011L148.887 94.6015C146.993 96.4342 144.824 97.6255 142.38 98.1753C139.998 98.7251 136.974 99 133.309 99V88.0038ZM183.525 65.7365C181.936 65.7365 180.623 65.2478 179.584 64.2704C178.607 63.293 178.118 61.7352 178.118 59.597C178.118 57.4589 178.607 55.9011 179.584 54.9236C180.623 53.9462 181.936 53.4575 183.525 53.4575H185.357C186.946 53.4575 188.228 53.9462 189.206 54.9236C190.244 55.9011 190.764 57.4589 190.764 59.597C190.764 61.7352 190.244 63.293 189.206 64.2704C188.228 65.2478 186.946 65.7365 185.357 65.7365H183.525ZM169.046 65.7365C167.458 65.7365 166.144 65.2478 165.106 64.2704C164.128 63.293 163.64 61.7352 163.64 59.597C163.64 57.4589 164.128 55.9011 165.106 54.9236C166.144 53.9462 167.458 53.4575 169.046 53.4575H170.879C172.467 53.4575 173.75 53.9462 174.728 54.9236C175.766 55.9011 176.285 57.4589 176.285 59.597C176.285 61.7352 175.766 63.293 174.728 64.2704C173.75 65.2478 172.467 65.7365 170.879 65.7365H169.046ZM176.285 52.3579C174.697 52.3579 173.384 51.8691 172.345 50.8917C171.368 49.9143 170.879 48.3565 170.879 46.2183C170.879 44.0802 171.368 42.5224 172.345 41.5449C173.384 40.5675 174.697 40.0788 176.285 40.0788H178.118C179.706 40.0788 180.989 40.5675 181.967 41.5449C183.005 42.5224 183.525 44.0802 183.525 46.2183C183.525 48.3565 183.005 49.9143 181.967 50.8917C180.989 51.8691 179.706 52.3579 178.118 52.3579H176.285Z" fill="#34656D"/>
<path fill-rule="evenodd" clip-rule="evenodd" d="M318.3 63.0933C310.44 63.0933 304.069 69.4646 304.069 77.3242C304.069 85.1837 310.44 91.555 318.3 91.555C326.159 91.555 332.53 85.1837 332.53 77.3242C332.53 69.4646 326.159 63.0933 318.3 63.0933ZM285.094 108.158C285.094 100.298 291.465 93.9268 299.325 93.9268C307.184 93.9268 313.556 100.298 313.556 108.158C313.556 116.017 307.184 122.389 299.325 122.389C291.465 122.389 285.094 116.017 285.094 108.158ZM325.415 108.158C325.415 100.298 331.786 93.9268 339.646 93.9268C347.505 93.9268 353.877 100.298 353.877 108.158C353.877 116.017 347.505 122.389 339.646 122.389C331.786 122.389 325.415 116.017 325.415 108.158Z" fill="#34656D"/>
<path d="M352.25 13.5077C339.192 13.5077 328.839 17.5443 321.193 25.6175C313.663 33.8231 309.899 44.808 309.899 58.5722H331.957C331.957 51.293 333.78 45.6021 337.427 41.4993C341.074 37.3965 346.015 35.3451 352.25 35.3451C358.485 35.3451 363.426 37.3303 367.073 41.3008C370.72 45.4036 372.543 51.0945 372.543 58.3737H394.601C394.601 44.4771 390.778 33.4922 383.131 25.419C375.602 17.4781 365.308 13.5077 352.25 13.5077Z" fill="#34656D"/>
<path d="M285.488 13.7015C272.43 13.7015 262.078 17.7382 254.431 25.8114C246.902 34.017 243.137 45.0018 243.137 58.766H265.195C265.195 51.4869 267.019 45.7959 270.665 41.6931C274.312 37.5904 279.253 35.539 285.488 35.539C291.723 35.539 296.664 37.5242 300.311 41.4946C303.958 45.5974 305.782 51.2884 305.782 58.5675H327.839C327.839 44.671 324.016 33.6861 316.369 25.6129C308.84 17.672 298.547 13.7015 285.488 13.7015Z" fill="#34656D"/>
</svg>
