<svg width="171" height="123" viewBox="0 0 171 123" fill="none" xmlns="http://www.w3.org/2000/svg">
<path fill-rule="evenodd" clip-rule="evenodd" d="M85.0353 56.0187C76.192 56.0187 69.0231 63.1876 69.0231 72.0309C69.0231 80.8743 76.192 88.0432 85.0353 88.0432C93.8787 88.0432 101.048 80.8743 101.048 72.0309C101.048 63.1876 93.8787 56.0187 85.0353 56.0187ZM47.6729 106.724C47.6729 97.8809 54.8418 90.712 63.6851 90.712C72.5284 90.712 79.6974 97.8809 79.6974 106.724C79.6974 115.568 72.5284 122.736 63.6851 122.736C54.8418 122.736 47.6729 115.568 47.6729 106.724ZM93.0422 106.724C93.0422 97.8809 100.211 90.712 109.054 90.712C117.898 90.712 125.067 97.8809 125.067 106.724C125.067 115.568 117.898 122.736 109.054 122.736C100.211 122.736 93.0422 115.568 93.0422 106.724Z" fill="#34656D"/>
<path d="M123.235 0.226402C108.542 0.226402 96.8933 4.7683 88.2894 13.8521C79.8178 23.0848 75.582 35.4448 75.582 50.9319H100.401C100.401 42.7416 102.453 36.3382 106.556 31.7219C110.66 27.1055 116.219 24.7973 123.235 24.7973C130.25 24.7973 135.809 27.0311 139.913 31.4985C144.016 36.1149 146.068 42.5182 146.068 50.7085H170.887C170.887 35.0725 166.585 22.7125 157.981 13.6287C149.51 4.69385 137.927 0.226402 123.235 0.226402Z" fill="#34656D"/>
<path d="M48.1154 0.444664C33.4225 0.444664 21.7741 4.98656 13.1702 14.0704C4.69867 23.3031 0.462891 35.663 0.462891 51.1501H25.2819C25.2819 42.9598 27.3336 36.5565 31.437 31.9401C35.5404 27.3238 41.0999 25.0156 48.1154 25.0156C55.1309 25.0156 60.6903 27.2493 64.7937 31.7168C68.8971 36.3331 70.9488 42.7365 70.9488 50.9268H95.7679C95.7679 35.2907 91.4659 22.9308 82.862 13.847C74.3904 4.91211 62.8082 0.444664 48.1154 0.444664Z" fill="#34656D"/>
</svg>
